# xmcd
#
# Track frame offsets: 
#        150
#        11316
#        27059
#        37827
#        49073
#        62875
#        79433
#        89549
#        101265
#        113773
#        126615
#
# Disc length: 1851 seconds
#
# Revision: 0
# Processed by: cddbd v1.5.2PL0 Copyright (c) Steve Scherf et al.
# Submitted via: ExactAudioCopyFreeDBPlugin 1.0
#
DISCID=8607390b
DTITLE=Red Roosters - Bang Boom
DYEAR=1998
DGENRE=Country
TTITLE0=Find My Baby For Me
TTITLE1=Chicken Shack Boogie
TTITLE2=Misery
TTITLE3=All Night Long
TTITLE4=When It Rains It Really Pours
TTITLE5=Nothin' But Good
TTITLE6=Willing And Ready
TTITLE7=I Wish You Would
TTITLE8=Messin' With The Kid
TTITLE9=Wait For Me
TTITLE10=Bang Boom
EXTD=
EXTT0=
EXTT1=
EXTT2=
EXTT3=
EXTT4=
EXTT5=
EXTT6=
EXTT7=
EXTT8=
EXTT9=
EXTT10=
PLAYORDER=
